<?xml version="1.0" encoding="UTF-8" standalone="no"?>
<svg width="204px" height="53px" viewBox="0 0 204 53" version="1.1" xmlns="http://www.w3.org/2000/svg" xmlns:xlink="http://www.w3.org/1999/xlink">
    <!-- Generator: Sketch 39 (31667) - http://www.bohemiancoding.com/sketch -->
    <title>Logo</title>
    <desc>Created with Sketch.</desc>
    <defs></defs>
    <g id="Page-1" stroke="none" stroke-width="1" fill="none" fill-rule="evenodd">
        <g id="Logo" fill="#000000">
            <path d="M144.525595,17.5279945 C144.814136,17.4857309 145.100271,17.443066 145.384,17.4 C147.176009,17.1279986 148.823992,16.8320016 150.328,16.512 C151.832008,16.1919984 153.063995,15.8880014 154.024,15.6 C154.632003,15.407999 154.976,15.1760014 155.056,14.904 C155.136,14.6319986 154.824004,14.4800002 154.12,14.448 C153.191995,14.448 152.032007,14.4639998 150.64,14.496 C149.247993,14.5280002 147.696009,14.5679998 145.984,14.616 C144.67009,14.6528386 143.285514,14.6896768 141.830249,14.7265152 C141.806934,14.7135506 141.783517,14.7007122 141.76,14.688 C141.167997,14.3679984 140.584003,14.208 140.008,14.208 C139.399997,14.208 138.824003,14.2159999 138.28,14.232 C137.735997,14.2480001 137.264002,14.3279993 136.864,14.472 C136.624057,14.5583794 136.412902,14.6764223 136.230533,14.8261302 C135.653603,14.8300434 135.07276,14.832 134.488,14.832 L134.776,13.2 C134.968001,11.8559933 135.127999,10.7040048 135.256,9.744 C135.384001,8.7839952 135.448,8.0640024 135.448,7.584 C135.448,6.68799552 135.144003,5.86400376 134.536,5.112 C133.927997,4.35999624 133.256004,3.83200152 132.52,3.528 C131.783996,3.22399848 131.112003,3.20799864 130.504,3.48 C129.895997,3.75200136 129.592,4.46399424 129.592,5.616 C129.592,6.16000272 129.464001,7.10399328 129.208,8.448 C128.951999,9.79200672 128.648002,11.4239904 128.296,13.344 L128.008,14.784 C124.903984,14.6879995 121.896015,14.5200012 118.984,14.28 C116.071985,14.0399988 113.416012,13.6800024 111.016,13.2 C110.663998,13.1359997 110.416001,13.2239988 110.272,13.464 C110.127999,13.7040012 110.311997,13.9999982 110.824,14.352 C111.432003,14.7680021 112.095996,15.2079977 112.816,15.672 C113.536004,16.1360023 114.335996,16.5839978 115.216,17.016 C116.096004,17.4480022 117.047995,17.8319983 118.072,18.168 C119.096005,18.5040017 120.199994,18.7359994 121.384,18.864 C122.216004,18.9600005 123.119995,19.0319998 124.096,19.08 C125.072005,19.1280002 126.119994,19.1360002 127.24,19.104 C126.759998,21.9520142 126.328002,24.8559852 125.944,27.816 C125.559998,30.7760148 125.368,33.4879877 125.368,35.952 C125.368,38.5760131 125.607998,40.88799 126.088,42.888 C126.568002,44.88801 127.167996,46.5679932 127.888,47.928 C128.608004,49.2880068 129.383996,50.3119966 130.216,51 C131.048004,51.6880034 131.831996,52.032 132.568,52.032 C133.048002,52.032 133.351999,51.9840005 133.48,51.888 C133.608001,51.7919995 133.624,51.5920015 133.528,51.288 C133.432,50.9839985 133.256001,50.528003 133,49.92 C132.743999,49.311997 132.488001,48.4960051 132.232,47.472 C131.975999,46.4479949 131.752001,45.1760076 131.56,43.656 C131.367999,42.1359924 131.272,40.3200106 131.272,38.208 C131.272,37.0239941 131.351999,35.6640077 131.512,34.128 C131.672001,32.5919923 131.871999,30.9680086 132.112,29.256 C132.352001,27.5439914 132.623998,25.792009 132.928,24 C133.232002,22.207991 133.527999,20.4640085 133.816,18.768 C134.846497,18.683533 135.881446,18.5879189 136.920854,18.481157 C137.235025,18.7282444 137.584073,18.967858 137.968,19.2 C138.656003,19.6160021 139.407996,19.9679986 140.224,20.256 C141.040004,20.5440014 141.791997,20.7119998 142.48,20.76 C143.168003,20.8080002 143.743998,20.6960014 144.208,20.424 C144.672002,20.1519986 144.904,19.6480037 144.904,18.912 C144.904,18.4927076 144.777866,18.0313765 144.525595,17.5279945 Z M148.712287,41.1325514 C148.636064,41.3008963 148.558636,41.4700458 148.48,41.64 C147.983998,42.7120054 147.464003,43.6879956 146.92,44.568 C146.375997,45.4480044 145.816003,46.1679972 145.24,46.728 C144.663997,47.2880028 144.104003,47.568 143.56,47.568 L143.464,47.568 C141.895992,47.568 140.648005,47.0800049 139.72,46.104 C138.791995,45.1279951 138.088002,43.936007 137.608,42.528 C137.127998,41.119993 136.816001,39.6560076 136.672,38.136 C136.527999,36.6159924 136.456,35.2960056 136.456,34.176 C136.456,32.7999931 136.48,31.616005 136.528,30.624 C136.576,29.631995 136.64,28.8000034 136.72,28.128 C136.8,27.4559966 136.864,26.9040022 136.912,26.472 C136.96,26.0399978 136.984,25.6800014 136.984,25.392 C136.984,24.8799974 137.295997,24.5840004 137.92,24.504 C138.544003,24.4239996 139.239996,24.5119987 140.008,24.768 C140.776004,25.0240013 141.471997,25.3999975 142.096,25.896 C142.720003,26.3920025 143.032,26.943997 143.032,27.552 C143.032,28.0000022 143.016,28.4959973 142.984,29.04 C142.952,29.5840027 142.92,30.159997 142.888,30.768 C142.856,31.376003 142.824,31.975997 142.792,32.568 C142.76,33.160003 142.744,33.7119974 142.744,34.224 C142.744,36.816013 142.943998,38.9279918 143.344,40.56 C143.744002,42.1920082 144.151998,43.4719954 144.568,44.4 C144.888002,44.2399992 145.247998,43.8880027 145.648,43.344 C146.048002,42.7999973 146.455998,42.1760035 146.872,41.472 C147.288002,40.7679965 147.687998,40.016004 148.072,39.216 C148.188425,38.9734481 148.301908,38.7345743 148.412449,38.4993778 C148.377483,37.9600549 148.36,37.4309299 148.36,36.912 C148.36,35.7919944 148.423999,34.632006 148.552,33.432 C148.680001,32.231994 148.903998,31.1200051 149.224,30.096 C149.544002,29.0719949 149.991997,28.1920037 150.568,27.456 C151.144003,26.7199963 151.863996,26.256001 152.728,26.064 C153.016001,25.263996 153.399998,24.6240024 153.88,24.144 C154.360002,23.6639976 154.887997,23.3040012 155.464,23.064 C156.040003,22.8239988 156.639997,22.6720003 157.264,22.608 C157.888003,22.5439997 158.487997,22.512 159.064,22.512 C159.768004,22.512 160.423997,22.6879982 161.032,23.04 C161.640003,23.3920018 162.167998,23.967996 162.616,24.768 C163.064002,25.568004 163.423999,26.5999937 163.696,27.864 C163.968001,29.1280063 164.104,30.6719909 164.104,32.496 C164.104,34.3200091 163.944002,36.1679906 163.624,38.04 C163.303998,39.9120094 162.792004,41.5999925 162.088,43.104 C161.383996,44.6080075 160.480006,45.8319953 159.376,46.776 C158.271994,47.7200047 156.936008,48.192 155.368,48.192 C153.959993,48.192 152.800005,47.8320036 151.888,47.112 C150.975995,46.3919964 150.256003,45.4800055 149.728,44.376 C149.25408,43.3850761 148.915511,42.3039353 148.712287,41.1325514 Z M51.6052518,34.8297981 C51.54397,35.0010535 51.4755528,35.2151204 51.4,35.472 C51.2399992,36.0160027 51.0320013,36.6559963 50.776,37.392 C50.5199987,38.1280037 50.2000019,38.9039959 49.816,39.72 C49.4319981,40.5360041 48.9760026,41.2799966 48.448,41.952 C47.9199974,42.6240034 47.3120034,43.1839978 46.624,43.632 C45.9359966,44.0800022 45.1600043,44.304 44.296,44.304 C43.5599963,44.304 42.9760022,43.8320047 42.544,42.888 C42.1119978,41.9439953 41.8160008,40.7600071 41.656,39.336 C41.4959992,37.9119929 41.4559996,36.3680083 41.536,34.704 C41.6160004,33.0399917 41.7839987,31.4960071 42.04,30.072 C42.2960013,28.6479929 42.6319979,27.4640047 43.048,26.52 C43.4640021,25.5759953 43.9439973,25.104 44.488,25.104 C44.7120011,25.104 44.9119991,25.3279978 45.088,25.776 C45.2640009,26.2240022 45.4639989,26.7119974 45.688,27.24 C45.9120011,27.7680026 46.1519987,28.2479978 46.408,28.68 C46.6640013,29.1120022 46.9839981,29.328 47.368,29.328 C47.7520019,29.328 47.9280002,29.0400029 47.896,28.464 C47.8639998,27.8879971 47.7280012,27.2240038 47.488,26.472 C47.2479988,25.7199962 46.9600017,24.9920035 46.624,24.288 C46.2879983,23.5839965 45.9920013,23.1040013 45.736,22.848 C45.4799987,22.5919987 45.0640029,22.4160005 44.488,22.32 C43.9119971,22.2239995 43.3040032,22.2079997 42.664,22.272 C42.0239968,22.3360003 41.3920031,22.4799989 40.768,22.704 C40.1439969,22.9280011 39.6560018,23.2319981 39.304,23.616 C38.9199981,23.9680018 38.4960023,24.5119963 38.032,25.248 C37.5679977,25.9840037 37.1200022,26.855995 36.688,27.864 C36.2559978,28.872005 35.8960014,29.975994 35.608,31.176 C35.3199986,32.376006 35.176,33.6319934 35.176,34.944 C35.176,36.5760082 35.3599982,38.1679922 35.728,39.72 C36.0960018,41.2720078 36.6239966,42.6559939 37.312,43.872 C38.0000034,45.0880061 38.8239952,46.0639963 39.784,46.8 C40.7440048,47.5360037 41.8319939,47.904 43.048,47.904 C44.2000058,47.904 45.2399954,47.5920031 46.168,46.968 C47.0960046,46.3439969 47.9199964,45.5680046 48.64,44.64 C49.3600036,43.7119954 49.9919973,42.6880056 50.536,41.568 C51.0375833,40.5353286 51.4643492,39.5502781 51.8163084,38.6128235 C51.9064001,39.5170338 52.0236306,40.3420913 52.168,41.088 C52.5520019,43.0720099 53.039997,44.6479942 53.632,45.816 C54.224003,46.9840058 54.8559966,47.8079976 55.528,48.288 C56.2000034,48.7680024 56.831997,49.0479996 57.424,49.128 C58.016003,49.2080004 58.5039981,49.144001 58.888,48.936 C59.2720019,48.727999 59.464,48.5120011 59.464,48.288 C59.464,48.095999 59.4240004,47.8800012 59.344,47.64 C59.2639996,47.3999988 59.1600006,47.0880019 59.032,46.704 C58.9039994,46.3199981 58.7680007,45.832003 58.624,45.24 C58.4799993,44.647997 58.3440006,43.9200043 58.216,43.056 C58.2480002,42.1919957 58.367999,41.2800048 58.576,40.32 C58.784001,39.3599952 59.0319986,38.384005 59.32,37.392 C59.6080014,36.399995 59.9279982,35.408005 60.28,34.416 C60.6320018,33.423995 60.9839982,32.4640046 61.336,31.536 C62.1680042,29.4239894 63.1119947,27.2960107 64.168,25.152 C64.0079992,25.952004 63.8640006,26.6879966 63.736,27.36 C63.6399995,27.9360029 63.5520004,28.5119971 63.472,29.088 C63.3919996,29.6640029 63.352,30.0799987 63.352,30.336 C63.352,30.8800027 63.751996,31.351998 64.552,31.752 C65.352004,32.152002 66.3599939,32.352 67.576,32.352 C68.184003,32.352 68.7039978,32.1280022 69.136,31.68 C69.5680022,31.2319978 69.9199986,30.6480036 70.192,29.928 C70.4640014,29.2079964 70.6639994,28.3760047 70.792,27.432 C70.9200006,26.4879953 70.984,25.520005 70.984,24.528 C70.984,23.535995 70.8080018,22.7760026 70.456,22.248 C70.1039982,21.7199974 69.6480028,21.3440011 69.088,21.12 C68.5279972,20.8959989 67.9120034,20.7680002 67.24,20.736 C66.5679966,20.7039998 65.8960034,20.688 65.224,20.688 C64.8399981,20.688 64.4240022,20.9679972 63.976,21.528 C63.5279978,22.0880028 63.0640024,22.8239954 62.584,23.736 C62.1039976,24.6480046 61.6160025,25.6959941 61.12,26.88 C60.6239975,28.0640059 60.1600022,29.2879937 59.728,30.552 C59.2959978,31.8160063 58.9040018,33.0719938 58.552,34.32 C58.1999982,35.5680062 57.928001,36.7199947 57.736,37.776 C57.6399995,36.4319933 57.592,34.8800088 57.592,33.12 C57.592,32.2239955 57.6399995,31.3920038 57.736,30.624 C57.8320005,29.8559962 57.9439994,29.1440033 58.072,28.488 C58.2000006,27.8319967 58.3119995,27.2240028 58.408,26.664 C58.5040005,26.1039972 58.552,25.5840024 58.552,25.104 C58.552,24.0799949 58.1760038,23.2080036 57.424,22.488 C56.6719962,21.7679964 55.4800082,21.408 53.848,21.408 C53.4319979,21.408 53.0800014,21.807996 52.792,22.608 C52.5039986,23.408004 52.2720009,24.407994 52.096,25.608 C51.9199991,26.808006 51.7920004,28.111993 51.712,29.52 C51.6319996,30.928007 51.592,32.2399939 51.592,33.456 C51.592,33.9268174 51.5964173,34.38475 51.6052518,34.8297981 Z M25.192,0.864 C26.2800054,0.864 27.2479958,1.12799736 28.096,1.656 C28.9440042,2.18400264 29.671997,2.83999608 30.28,3.624 C30.888003,4.40800392 31.3759982,5.26399536 31.744,6.192 C32.1120018,7.12000464 32.3519994,7.97599608 32.464,8.76 C32.5760006,9.54400392 32.5600007,10.1999974 32.416,10.728 C32.2719993,11.2560026 32.0080019,11.52 31.624,11.52 C31.3359986,11.52 30.9680022,11.3600016 30.52,11.04 C30.0719978,10.7199984 29.5360031,10.3760018 28.912,10.008 C28.2879969,9.63999816 27.5840039,9.2960016 26.8,8.976 C26.0159961,8.6559984 25.1440048,8.496 24.184,8.496 C22.7439928,8.496 21.2000082,8.83999656 19.552,9.528 C17.9039918,10.2160034 16.3040078,11.0719949 14.752,12.096 C13.1999922,13.1200051 11.7520067,14.2239941 10.408,15.408 C9.06399328,16.5920059 7.992004,17.6959949 7.192,18.72 C6.391996,19.7440051 5.9120008,20.5999966 5.752,21.288 C5.5919992,21.9760034 5.92799584,22.32 6.76,22.32 C7.30400272,22.32 8.03199544,22.1520017 8.944,21.816 C9.85600456,21.4799983 10.9439937,21.1040021 12.208,20.688 C13.4720063,20.2719979 14.903992,19.8960017 16.504,19.56 C18.104008,19.2239983 19.8959901,19.056 21.88,19.056 C24.472013,19.056 26.5359923,19.3359972 28.072,19.896 C29.6080077,20.4560028 30.7919958,21.1679957 31.624,22.032 C32.4560042,22.8960043 32.9999987,23.8479948 33.256,24.888 C33.5120013,25.9280052 33.64,26.9119954 33.64,27.84 C33.64,30.048011 33.240004,32.15199 32.44,34.152 C31.639996,36.15201 30.5760066,37.9999915 29.248,39.696 C27.9199934,41.3920085 26.4000086,42.9199932 24.688,44.28 C22.9759914,45.6400068 21.2000092,46.7919953 19.36,47.736 C17.5199908,48.6800047 15.6800092,49.4079974 13.84,49.92 C11.9999908,50.4320026 10.2960078,50.688 8.728,50.688 C7.95999616,50.688 7.08800488,50.5120018 6.112,50.16 C5.13599512,49.8079982 4.23200416,49.2720036 3.4,48.552 C2.56799584,47.8319964 1.86400288,46.9360054 1.288,45.864 C0.71199712,44.7919946 0.424,43.5360072 0.424,42.096 C0.424,41.3279962 0.5839984,40.7760017 0.904,40.44 C1.2240016,40.1039983 1.57599808,39.9519998 1.96,39.984 C2.34400192,40.0160002 2.6959984,40.2079982 3.016,40.56 C3.3360016,40.9120018 3.496,41.391997 3.496,42 C3.496,42.5440027 3.64799848,42.9999982 3.952,43.368 C4.25600152,43.7360018 4.63199776,44.023999 5.08,44.232 C5.52800224,44.440001 5.99999752,44.5839996 6.496,44.664 C6.99200248,44.7440004 7.41599824,44.784 7.768,44.784 C8.7280048,44.784 9.83199376,44.5600022 11.08,44.112 C12.3280062,43.6639978 13.6079934,43.0480039 14.92,42.264 C16.2320066,41.4799961 17.5199937,40.5520054 18.784,39.48 C20.0480063,38.4079946 21.175995,37.2560062 22.168,36.024 C23.160005,34.7919938 23.959997,33.5120066 24.568,32.184 C25.176003,30.8559934 25.48,29.5200067 25.48,28.176 C25.48,27.2799955 25.4320005,26.4400039 25.336,25.656 C25.2399995,24.8719961 25.0480014,24.184003 24.76,23.592 C24.4719986,22.999997 24.0720026,22.5360017 23.56,22.2 C23.0479974,21.8639983 22.3760042,21.696 21.544,21.696 C19.6239904,21.696 17.8160085,21.9199978 16.12,22.368 C14.4239915,22.8160022 12.9200066,23.3039974 11.608,23.832 C10.2959934,24.3600026 9.2000044,24.8399978 8.32,25.272 C7.4399956,25.7040022 6.8400016,25.92 6.52,25.92 C5.8799968,25.92 5.24800312,25.7760014 4.624,25.488 C3.99999688,25.1999986 3.4480024,24.8240023 2.968,24.36 C2.4879976,23.8959977 2.09600152,23.3920027 1.792,22.848 C1.48799848,22.3039973 1.336,21.7760026 1.336,21.264 C1.336,19.9839936 1.71199624,18.5920075 2.464,17.088 C3.21600376,15.5839925 4.21599376,14.0720076 5.464,12.552 C6.71200624,11.0319924 8.15199184,9.57600696 9.784,8.184 C11.4160082,6.79199304 13.1119912,5.55200544 14.872,4.464 C16.6320088,3.37599456 18.3999911,2.50400328 20.176,1.848 C21.9520089,1.19199672 23.6239922,0.864 25.192,0.864 Z M88.888,40.464 C88.888,41.872007 88.9759991,43.0319954 89.152,43.944 C89.3280009,44.8560046 89.4719994,45.5759974 89.584,46.104 C89.6960006,46.6320026 89.7200003,47.0079989 89.656,47.232 C89.5919997,47.4560011 89.3200024,47.568 88.84,47.568 C88.0719962,47.568 87.2960039,47.4320014 86.512,47.16 C85.7279961,46.8879986 85.0240031,46.448003 84.4,45.84 C83.7759969,45.231997 83.264002,44.4480048 82.864,43.488 C82.463998,42.5279952 82.264,41.3760067 82.264,40.032 L82.264,38.928 C82.264,38.5439981 82.2799998,38.1280022 82.312,37.68 L78.664,46.848 C78.7600005,47.1040013 78.8479996,47.327999 78.928,47.52 C79.0080004,47.712001 79.048,47.9359987 79.048,48.192 C79.048,48.4160011 78.8720018,48.5599997 78.52,48.624 C78.1679982,48.6880003 77.7200027,48.6480007 77.176,48.504 C76.6319973,48.3599993 76.056003,48.1040018 75.448,47.736 C74.839997,47.3679982 74.2640027,46.8400034 73.72,46.152 C73.1759973,45.4639966 72.7280018,44.6080051 72.376,43.584 C72.0239982,42.5599949 71.848,41.344007 71.848,39.936 C71.848,38.6239934 71.9119994,37.1760079 72.04,35.592 C72.1680006,34.0079921 72.3039993,32.4800074 72.448,31.008 C72.5920007,29.5359926 72.7279994,28.2240058 72.856,27.072 C72.9840006,25.9199942 73.048,25.1360021 73.048,24.72 C73.048,24.4319986 72.9920006,24.1360015 72.88,23.832 C72.7679994,23.5279985 72.6880002,23.2480013 72.64,22.992 C72.5919998,22.7359987 72.6399993,22.5280008 72.784,22.368 C72.9280007,22.2079992 73.2719973,22.128 73.816,22.128 C74.4560032,22.128 75.1039967,22.2159991 75.76,22.392 C76.4160033,22.5680009 77.0159973,22.7999986 77.56,23.088 C78.1040027,23.3760014 78.5519982,23.7119981 78.904,24.096 C79.2560018,24.4800019 79.432,24.8799979 79.432,25.296 C79.432,25.7440022 79.336001,26.4159955 79.144,27.312 C78.951999,28.2080045 78.7440011,29.2799938 78.52,30.528 C78.2959989,31.7760062 78.088001,33.1759922 77.896,34.728 C77.703999,36.2800078 77.608,37.9039915 77.608,39.6 C77.608,41.0400072 77.6559995,42.2079955 77.752,43.104 C77.8480005,44.0000045 77.9759992,44.7359971 78.136,45.312 C78.3600011,44.7679973 78.6639981,44.0480045 79.048,43.152 C79.4320019,42.2559955 79.823998,41.2880052 80.224,40.248 C80.624002,39.2079948 81.0319979,38.1360055 81.448,37.032 C81.8640021,35.9279945 82.2159986,34.8960048 82.504,33.936 C82.5680003,33.0399955 82.6159998,32.2400035 82.648,31.536 C82.6800002,30.8319965 82.696,30.3520013 82.696,30.096 C82.696,29.6479978 82.7759992,29.1840024 82.936,28.704 C83.0960008,28.2239976 83.4639971,27.984 84.04,27.984 C84.3280014,27.984 84.7839969,28.0159997 85.408,28.08 C86.0320031,28.1440003 86.6559969,28.279999 87.28,28.488 C87.9040031,28.696001 88.4559976,28.9839982 88.936,29.352 C89.4160024,29.7200018 89.656,30.1919971 89.656,30.768 C89.656,31.1520019 89.6160004,31.543998 89.536,31.944 C89.4559996,32.344002 89.3680005,32.8799966 89.272,33.552 C89.1759995,34.2240034 89.0880004,35.1039946 89.008,36.192 C88.9279996,37.2800054 88.888,38.7039912 88.888,40.464 Z M121.096,39.072 C121.096,40.8000086 121.183999,42.2479942 121.36,43.416 C121.536001,44.5840058 121.679999,45.5199965 121.792,46.224 C121.904001,46.9280035 121.928,47.4319985 121.864,47.736 C121.8,48.0400015 121.512003,48.192 121,48.192 C120.199996,48.192 119.504003,48.0080018 118.912,47.64 C118.319997,47.2719982 117.808002,46.7760031 117.376,46.152 C116.943998,45.5279969 116.576002,44.8320038 116.272,44.064 C115.967998,43.2959962 115.720001,42.4960042 115.528,41.664 C115.079998,39.7439904 114.84,37.5680122 114.808,35.136 C114.071996,37.4400115 113.368003,39.4719912 112.696,41.232 C112.407999,42.0000038 112.112002,42.7519963 111.808,43.488 C111.503998,44.2240037 111.200002,44.8719972 110.896,45.432 C110.591998,45.9920028 110.312001,46.4479982 110.056,46.8 C109.799999,47.1520018 109.576001,47.328 109.384,47.328 C108.999998,47.328 108.496003,47.2720006 107.872,47.16 C107.247997,47.0479994 106.640003,46.8080018 106.048,46.44 C105.455997,46.0719982 104.944002,45.5600033 104.512,44.904 C104.079998,44.2479967 103.864,43.3920053 103.864,42.336 C103.864,41.6319965 103.927999,40.6720061 104.056,39.456 C104.184001,38.2399939 104.319999,36.9440069 104.464,35.568 C104.608001,34.1919931 104.759999,32.7920071 104.92,31.368 C105.080001,29.9439929 105.2,28.6560058 105.28,27.504 C105.36,26.3519942 105.368,25.4160036 105.304,24.696 C105.24,23.9759964 105.080001,23.616 104.824,23.616 C104.343998,23.616 103.896002,24.0559956 103.48,24.936 C103.063998,25.8160044 102.664002,26.959993 102.28,28.368 C101.895998,29.776007 101.528002,31.3519913 101.176,33.096 C100.823998,34.8400087 100.488002,36.5679914 100.168,38.28 C99.8479984,39.9920086 99.5440014,41.6079924 99.256,43.128 C98.9679986,44.6480076 98.6960013,45.8719954 98.44,46.8 C98.6000008,47.4400032 98.6560002,47.8879987 98.608,48.144 C98.5599998,48.4000013 98.232003,48.528 97.624,48.528 C96.5359946,48.528 95.6320036,48.1920034 94.912,47.52 C94.1919964,46.8479966 93.6240021,45.9760054 93.208,44.904 C92.7919979,43.8319946 92.4960009,42.6160068 92.32,41.256 C92.1439991,39.8959932 92.0240003,38.5440067 91.96,37.2 C91.8959997,35.8559933 91.8799998,34.5680062 91.912,33.336 C91.9440002,32.1039938 91.96,31.0720042 91.96,30.24 C91.96,29.8879982 91.864001,29.6480006 91.672,29.52 C91.479999,29.3919994 91.384,29.1520018 91.384,28.8 C91.384,28.4479982 91.7359965,28.2320004 92.44,28.152 C93.1440035,28.0719996 93.9199958,28.1199991 94.768,28.296 C95.6160042,28.4720009 96.3919965,28.7839978 97.096,29.232 C97.8000035,29.6800022 98.152,30.2559965 98.152,30.96 C98.152,32.368007 98.0640009,33.871992 97.888,35.472 C97.7119991,37.072008 97.624,38.7359914 97.624,40.464 C97.624,40.8160018 97.624,41.1519984 97.624,41.472 C97.624,41.7920016 97.6399998,42.0799987 97.672,42.336 C97.8320008,41.343995 98.0479986,40.1280072 98.32,38.688 C98.5920014,37.2479928 98.9119982,35.7360079 99.28,34.152 C99.6480018,32.5679921 100.063998,30.9920078 100.528,29.424 C100.992002,27.8559922 101.495997,26.4480062 102.04,25.2 C102.584003,23.9519938 103.167997,22.9440038 103.792,22.176 C104.416003,21.4079962 105.079996,21.024 105.784,21.024 C107.160007,21.024 108.215996,21.5039952 108.952,22.464 C109.688004,23.4240048 110.199999,24.6239928 110.488,26.064 C110.776001,27.5040072 110.912,29.0559917 110.896,30.72 C110.88,32.3840083 110.808001,33.9359928 110.68,35.376 C110.551999,36.8160072 110.424001,38.0159952 110.296,38.976 C110.167999,39.9360048 110.152,40.416 110.248,40.416 C110.344,40.416 110.503999,40.1280029 110.728,39.552 C110.952001,38.9759971 111.223998,38.2560043 111.544,37.392 C111.864002,36.5279957 112.231998,35.5840051 112.648,34.56 C113.064002,33.5359949 113.487998,32.5920043 113.92,31.728 C114.352002,30.8639957 114.783998,30.1440029 115.216,29.568 C115.648002,28.9919971 116.071998,28.704 116.488,28.704 C117.096003,28.704 117.711997,28.7519995 118.336,28.848 C118.960003,28.9440005 119.519998,29.1119988 120.016,29.352 C120.512002,29.5920012 120.919998,29.9199979 121.24,30.336 C121.560002,30.7520021 121.72,31.2799968 121.72,31.92 C121.72,32.720004 121.616001,33.7119941 121.408,34.896 C121.199999,36.0800059 121.096,37.471992 121.096,39.072 Z M157.768,45.648 C158.280003,45.648 158.775998,45.152005 159.256,44.16 C159.736002,43.167995 160.151998,41.9200075 160.504,40.416 C160.856002,38.9119925 161.119999,37.2880087 161.296,35.544 C161.472001,33.7999913 161.512,32.1760075 161.416,30.672 C161.32,29.1679925 161.064002,27.920005 160.648,26.928 C160.231998,25.935995 159.592004,25.44 158.728,25.44 C158.343998,25.44 158.072001,25.7119973 157.912,26.256 C157.751999,26.8000027 157.608001,27.4319964 157.48,28.152 C157.351999,28.8720036 157.192001,29.5999963 157,30.336 C156.807999,31.0720037 156.504002,31.6319981 156.088,32.016 C156.088,33.4560072 156.04,34.975992 155.944,36.576 C155.848,38.176008 155.808,39.6479933 155.824,40.992 C155.84,42.3360067 155.983999,43.4479956 156.256,44.328 C156.528001,45.2080044 157.031996,45.648 157.768,45.648 Z M183.832,40.464 C183.832,41.872007 183.919999,43.0319954 184.096,43.944 C184.272001,44.8560046 184.415999,45.5759974 184.528,46.104 C184.640001,46.6320026 184.664,47.0079989 184.6,47.232 C184.536,47.4560011 184.264002,47.568 183.784,47.568 C183.015996,47.568 182.240004,47.4320014 181.456,47.16 C180.671996,46.8879986 179.968003,46.448003 179.344,45.84 C178.719997,45.231997 178.208002,44.4480048 177.808,43.488 C177.407998,42.5279952 177.208,41.3760067 177.208,40.032 L177.208,38.928 C177.208,38.5439981 177.224,38.1280022 177.256,37.68 L173.608,46.848 C173.704,47.1040013 173.792,47.327999 173.872,47.52 C173.952,47.712001 173.992,47.9359987 173.992,48.192 C173.992,48.4160011 173.816002,48.5599997 173.464,48.624 C173.111998,48.6880003 172.664003,48.6480007 172.12,48.504 C171.575997,48.3599993 171.000003,48.1040018 170.392,47.736 C169.783997,47.3679982 169.208003,46.8400034 168.664,46.152 C168.119997,45.4639966 167.672002,44.6080051 167.32,43.584 C166.967998,42.5599949 166.792,41.344007 166.792,39.936 C166.792,38.6239934 166.855999,37.1760079 166.984,35.592 C167.112001,34.0079921 167.247999,32.4800074 167.392,31.008 C167.536001,29.5359926 167.671999,28.2240058 167.8,27.072 C167.928001,25.9199942 167.992,25.1360021 167.992,24.72 C167.992,24.4319986 167.936001,24.1360015 167.824,23.832 C167.711999,23.5279985 167.632,23.2480013 167.584,22.992 C167.536,22.7359987 167.583999,22.5280008 167.728,22.368 C167.872001,22.2079992 168.215997,22.128 168.76,22.128 C169.400003,22.128 170.047997,22.2159991 170.704,22.392 C171.360003,22.5680009 171.959997,22.7999986 172.504,23.088 C173.048003,23.3760014 173.495998,23.7119981 173.848,24.096 C174.200002,24.4800019 174.376,24.8799979 174.376,25.296 C174.376,25.7440022 174.280001,26.4159955 174.088,27.312 C173.895999,28.2080045 173.688001,29.2799938 173.464,30.528 C173.239999,31.7760062 173.032001,33.1759922 172.84,34.728 C172.647999,36.2800078 172.552,37.9039915 172.552,39.6 C172.552,41.0400072 172.6,42.2079955 172.696,43.104 C172.792,44.0000045 172.919999,44.7359971 173.08,45.312 C173.304001,44.7679973 173.607998,44.0480045 173.992,43.152 C174.376002,42.2559955 174.767998,41.2880052 175.168,40.248 C175.568002,39.2079948 175.975998,38.1360055 176.392,37.032 C176.808002,35.9279945 177.159999,34.8960048 177.448,33.936 C177.512,33.0399955 177.56,32.2400035 177.592,31.536 C177.624,30.8319965 177.64,30.3520013 177.64,30.096 C177.64,29.6479978 177.719999,29.1840024 177.88,28.704 C178.040001,28.2239976 178.407997,27.984 178.984,27.984 C179.272001,27.984 179.727997,28.0159997 180.352,28.08 C180.976003,28.1440003 181.599997,28.279999 182.224,28.488 C182.848003,28.696001 183.399998,28.9839982 183.88,29.352 C184.360002,29.7200018 184.6,30.1919971 184.6,30.768 C184.6,31.1520019 184.56,31.543998 184.48,31.944 C184.4,32.344002 184.312,32.8799966 184.216,33.552 C184.12,34.2240034 184.032,35.1039946 183.952,36.192 C183.872,37.2800054 183.832,38.7039912 183.832,40.464 Z M187,33.072 C187,32.0159947 187.239998,30.8160067 187.72,29.472 C188.200002,28.1279933 188.807996,26.856006 189.544,25.656 C190.280004,24.455994 191.103995,23.4400042 192.016,22.608 C192.928005,21.7759958 193.815996,21.36 194.68,21.36 L197.464,21.36 C198.456005,21.36 199.359996,21.4399992 200.176,21.6 C200.992004,21.7600008 201.671997,22.0719977 202.216,22.536 C202.760003,23.0000023 203.032,23.6799955 203.032,24.576 C203.032,25.4720045 202.784002,26.3999952 202.288,27.36 C201.791998,28.3200048 201.232003,29.199996 200.608,30 C199.983997,30.800004 199.376003,31.4559974 198.784,31.968 C198.191997,32.4800026 197.800001,32.736 197.608,32.736 C197.383999,32.736 197.32,32.3840035 197.416,31.68 C197.512,30.9759965 197.631999,30.2000042 197.776,29.352 C197.920001,28.5039958 198.04,27.7280035 198.136,27.024 C198.232,26.3199965 198.184001,25.968 197.992,25.968 C197.383997,25.968 196.792003,26.1999977 196.216,26.664 C195.639997,27.1280023 195.112002,27.7039966 194.632,28.392 C194.151998,29.0800034 193.752002,29.8319959 193.432,30.648 C193.111998,31.4640041 192.896001,32.2159966 192.784,32.904 C192.671999,33.5920034 192.687999,34.1679977 192.832,34.632 C192.976001,35.0960023 193.287998,35.328 193.768,35.328 C193.960001,35.328 194.311997,35.3359999 194.824,35.352 C195.336003,35.3680001 195.911997,35.4079997 196.552,35.472 C197.192003,35.5360003 197.855997,35.6479992 198.544,35.808 C199.232003,35.9680008 199.855997,36.1999985 200.416,36.504 C200.976003,36.8080015 201.439998,37.1999976 201.808,37.68 C202.176002,38.1600024 202.36,38.7519965 202.36,39.456 C202.36,40.1600035 202.168002,40.9279958 201.784,41.76 C201.399998,42.5920042 200.896003,43.4159959 200.272,44.232 C199.647997,45.0480041 198.944004,45.8399962 198.16,46.608 C197.375996,47.3760038 196.592004,48.055997 195.808,48.648 C195.023996,49.240003 194.280004,49.7119982 193.576,50.064 C192.871996,50.4160018 192.280002,50.592 191.8,50.592 C191.095996,50.592 190.464003,50.4640013 189.904,50.208 C189.343997,49.9519987 188.896002,49.6640016 188.56,49.344 C188.223998,49.0239984 188.032,48.7360013 187.984,48.48 C187.936,48.2239987 188.071998,48.096 188.392,48.096 C188.776002,48.096 189.263997,47.9200018 189.856,47.568 C190.448003,47.2159982 191.071997,46.7600028 191.728,46.2 C192.384003,45.6399972 193.047997,45.0160034 193.72,44.328 C194.392003,43.6399966 194.991997,42.9680033 195.52,42.312 C196.048003,41.6559967 196.479998,41.0560027 196.816,40.512 C197.152002,39.9679973 197.32,39.5520014 197.32,39.264 C195.39999,39.4880011 193.672008,39.4240018 192.136,39.072 C191.495997,38.9439994 190.864003,38.7360014 190.24,38.448 C189.615997,38.1599986 189.064002,37.7840023 188.584,37.32 C188.103998,36.8559977 187.720001,36.2720035 187.432,35.568 C187.143999,34.8639965 187,34.0320048 187,33.072 Z" id="Shape"></path>
        </g>
    </g>
</svg>